# xmcd
#
# Track frame offsets:
#	150
#	14655
#	33386
#	45065
#	58682
#	74544
#	104425
#	124231
#	137861
#	164878
#	184970
#
# Disc length: 2663 seconds
#
# Revision: 0
# Processed by: cddbd v1.5.2PL0 Copyright (c) Steve Scherf et al.
# Submitted via: EasyCDDAExtractor 2010.6.0.0
#
DISCID=a50a650b
DTITLE=Bettman, Stephanie and Luke Halpin - It all comes back to love  [2010]
DYEAR=2010
DGENRE=
TTITLE0=Fiddler's Bend
TTITLE1=It all comes back to love
TTITLE2=Leavin' New York
TTITLE3=Buttonwillow
TTITLE4=Moonlit night
TTITLE5=The darker side of happy
TTITLE6=I just wanna love you
TTITLE7=Stiff upper lip
TTITLE8=The sound of time
TTITLE9=Beautiful place
TTITLE10=After the storm
EXTD=
EXTT0=
EXTT1=
EXTT2=
EXTT3=
EXTT4=
EXTT5=
EXTT6=
EXTT7=
EXTT8=
EXTT9=
EXTT10=
PLAYORDER=
